<?xml version="1.0" encoding="utf-8"?>
<svg xmlns="http://www.w3.org/2000/svg" xmlns:xlink="http://www.w3.org/1999/xlink">
  <symbol viewBox="0 0 16 16" fill="currentColor" id="__icon_submit" xmlns="http://www.w3.org/2000/svg">
    <path fill-rule="evenodd" d="M4.406 1.342A5.53 5.53 0 018 0c2.69 0 4.923 2 5.166 4.579C14.758 4.804 16 6.137 16 7.773 16 9.569 14.502 11 12.687 11H10a.5.5 0 010-1h2.688C13.979 10 15 8.988 15 7.773c0-1.216-1.02-2.228-2.313-2.228h-.5v-.5C12.188 2.825 10.328 1 8 1a4.53 4.53 0 00-2.941 1.1c-.757.652-1.153 1.438-1.153 2.055v.448l-.445.049C2.064 4.805 1 5.952 1 7.318 1 8.785 2.23 10 3.781 10H6a.5.5 0 010 1H3.781C1.708 11 0 9.366 0 7.318c0-1.763 1.266-3.223 2.942-3.593.143-.863.698-1.723 1.464-2.383z"/>
    <path fill-rule="evenodd" d="M7.646 4.146a.5.5 0 01.708 0l3 3a.5.5 0 01-.708.708L8.5 5.707V14.5a.5.5 0 01-1 0V5.707L5.354 7.854a.5.5 0 11-.708-.708l3-3z"/>
  </symbol>
  <symbol viewBox="0 0 16 16" fill="currentColor" id="__icon_arrows" xmlns="http://www.w3.org/2000/svg">
    <path d="M11.534 7h3.932a.25.25 0 01.192.41l-1.966 2.36a.25.25 0 01-.384 0l-1.966-2.36a.25.25 0 01.192-.41zm-11 2h3.932a.25.25 0 00.192-.41L2.692 6.23a.25.25 0 00-.384 0L.342 8.59A.25.25 0 00.534 9z"/>
    <path fill-rule="evenodd" d="M8 3c-1.552 0-2.94.707-3.857 1.818a.5.5 0 11-.771-.636A6.002 6.002 0 0113.917 7H12.9A5.002 5.002 0 008 3zM3.1 9a5.002 5.002 0 008.757 2.182.5.5 0 11.771.636A6.002 6.002 0 012.083 9H3.1z"/>
  </symbol>
  <symbol viewBox="0 0 16 16" fill="currentColor" id="__icon_discard" xmlns="http://www.w3.org/2000/svg">
    <path d="M5.5 5.5A.5.5 0 016 6v6a.5.5 0 01-1 0V6a.5.5 0 01.5-.5zm2.5 0a.5.5 0 01.5.5v6a.5.5 0 01-1 0V6a.5.5 0 01.5-.5zm3 .5a.5.5 0 00-1 0v6a.5.5 0 001 0V6z"/>
    <path fill-rule="evenodd" d="M14.5 3a1 1 0 01-1 1H13v9a2 2 0 01-2 2H5a2 2 0 01-2-2V4h-.5a1 1 0 01-1-1V2a1 1 0 011-1H6a1 1 0 011-1h2a1 1 0 011 1h3.5a1 1 0 011 1v1zM4.118 4L4 4.059V13a1 1 0 001 1h6a1 1 0 001-1V4.059L11.882 4H4.118zM2.5 3V2h11v1h-11z"/>
  </symbol>
</svg>
