<?xml version="1.0" encoding="utf-8"?>
<svg xmlns="http://www.w3.org/2000/svg" xmlns:xlink="http://www.w3.org/1999/xlink">
  <symbol viewBox="0 0 16 16" fill="currentColor" id="__icon_submit" xmlns="http://www.w3.org/2000/svg">
  <path fill-rule="evenodd" d="M8 15A7 7 0 108 1a7 7 0 000 14zm0 1A8 8 0 108 0a8 8 0 000 16z"/>
  <path fill-rule="evenodd" d="M5.172 10.828a.5.5 0 00.707 0l4.096-4.096V9.5a.5.5 0 101 0V5.525a.5.5 0 00-.5-.5H6.5a.5.5 0 000 1h2.768l-4.096 4.096a.5.5 0 000 .707z"/>
  </symbol>
  <symbol viewBox="0 0 16 16" fill="currentColor" id="__icon_arrows" xmlns="http://www.w3.org/2000/svg">
    <path d="M11.534 7h3.932a.25.25 0 01.192.41l-1.966 2.36a.25.25 0 01-.384 0l-1.966-2.36a.25.25 0 01.192-.41zm-11 2h3.932a.25.25 0 00.192-.41L2.692 6.23a.25.25 0 00-.384 0L.342 8.59A.25.25 0 00.534 9z"/>
    <path fill-rule="evenodd" d="M8 3c-1.552 0-2.94.707-3.857 1.818a.5.5 0 11-.771-.636A6.002 6.002 0 0113.917 7H12.9A5.002 5.002 0 008 3zM3.1 9a5.002 5.002 0 008.757 2.182.5.5 0 11.771.636A6.002 6.002 0 012.083 9H3.1z"/>
  </symbol>
  <symbol viewBox="0 0 16 16" fill="currentColor" id="__icon_discard" xmlns="http://www.w3.org/2000/svg">
    <path d="M5.5 5.5A.5.5 0 016 6v6a.5.5 0 01-1 0V6a.5.5 0 01.5-.5zm2.5 0a.5.5 0 01.5.5v6a.5.5 0 01-1 0V6a.5.5 0 01.5-.5zm3 .5a.5.5 0 00-1 0v6a.5.5 0 001 0V6z"/>
    <path fill-rule="evenodd" d="M14.5 3a1 1 0 01-1 1H13v9a2 2 0 01-2 2H5a2 2 0 01-2-2V4h-.5a1 1 0 01-1-1V2a1 1 0 011-1H6a1 1 0 011-1h2a1 1 0 011 1h3.5a1 1 0 011 1v1zM4.118 4L4 4.059V13a1 1 0 001 1h6a1 1 0 001-1V4.059L11.882 4H4.118zM2.5 3V2h11v1h-11z"/>
  </symbol>
</svg>
